<svg width="256" height="256" viewBox="0 0 256 256" fill="none" xmlns="http://www.w3.org/2000/svg">
<path d="M228.443 147.252C228.12 141.881 226.676 136.631 224.197 131.823C221.719 127.015 218.259 122.75 214.03 119.29C212.725 114.661 210.448 110.347 207.343 106.621C206.328 96.4285 201.225 87.0384 193.144 80.49C194.462 79.3864 195.577 78.0656 196.431 76.591C200.582 74.9091 204.269 72.3017 207.197 68.9786C210.124 65.6555 212.21 61.7095 213.287 57.4579C218.028 53.1602 220.937 47.2833 221.436 40.9935C221.579 38.4467 221.085 35.9042 219.997 33.5845C221.966 31.7517 223.364 29.4143 224.029 26.8416C224.695 24.2689 224.6 21.5654 223.758 19.0425C220.944 11.0997 211.081 5.94329 197.829 5.39598C193.812 2.07253 188.653 0.351717 183.388 0.578777C180.762 0.591212 178.147 0.905486 175.596 1.51508C173.189 0.462912 170.572 -0.0531947 167.935 0.00433147C162.801 0.0578582 157.768 1.39414 153.317 3.88523C152.732 3.80984 152.143 3.77207 151.553 3.77215C145.43 4.36681 139.659 6.83364 135.064 10.8193C131.809 13.3852 128.898 16.3394 126.399 19.6124C123.899 16.3392 120.986 13.3851 117.73 10.8193C113.136 6.83504 107.366 4.36834 101.246 3.77215C100.656 3.77215 100.066 3.80834 99.4812 3.88523C95.0299 1.39452 89.9968 0.0582618 84.8637 0.00433147C82.2263 -0.0530425 79.6089 0.463058 77.202 1.51508C74.6487 0.904779 72.0302 0.5905 69.4011 0.578777C64.1375 0.353324 58.9808 2.07401 54.9647 5.39598C41.7124 5.93876 31.8497 11.0997 29.0312 19.047C28.1905 21.5701 28.0984 24.2732 28.7655 26.8451C29.4325 29.417 30.8316 31.7531 32.8016 33.5845C31.7123 35.9056 31.2183 38.4498 31.3622 40.998C31.8612 47.2879 34.7701 53.165 39.5114 57.4625C40.5886 61.7132 42.6749 65.6583 45.6024 68.9806C48.5299 72.3029 52.217 74.9096 56.367 76.591C57.2167 78.0656 58.3312 79.3864 59.6499 80.49C51.57 87.0392 46.469 96.4292 45.455 106.621C42.3496 110.347 40.0727 114.661 38.7684 119.29C34.5391 122.75 31.0793 127.015 28.601 131.823C26.1227 136.631 24.6779 141.881 24.3552 147.252C23.6182 152.543 24.031 157.926 25.5668 163.052C27.1027 168.178 29.7274 172.932 33.2706 177.006C34.4779 182.931 36.9853 188.536 40.6119 193.434C41.422 202.7 45.3116 211.456 51.6911 218.375C58.0703 225.516 66.6355 230.473 76.1248 232.515C81.7846 237.649 88.423 241.652 95.6643 244.298C104.037 251.822 115.012 256 126.404 256C137.796 256 148.77 251.822 157.143 244.298C164.382 241.651 171.018 237.648 176.678 232.515C186.167 230.473 194.733 225.516 201.112 218.375C207.491 211.456 211.381 202.7 212.191 193.434C215.821 188.535 218.326 182.932 219.537 177.006C223.079 172.931 225.703 168.177 227.238 163.052C228.773 157.926 229.181 152.543 228.443 147.252Z" fill="black"/>
<path d="M151.168 17.1788C151.333 17.1326 151.506 17.1266 151.674 17.1612C151.841 17.1958 151.998 17.2699 152.129 17.3772C152.26 17.4844 152.362 17.6214 152.426 17.7761C152.49 17.9308 152.514 18.0985 152.496 18.2644C152.162 21.3039 154.052 20.9195 154.502 20.3812C156.125 18.0602 158.349 16.1978 160.949 14.9826C163.548 13.7674 166.431 13.2424 169.305 13.4607C169.491 13.4792 169.669 13.546 169.82 13.6542C169.97 13.7624 170.088 13.908 170.161 14.0757C170.234 14.2435 170.26 14.4273 170.235 14.6079C170.21 14.7886 170.136 14.9594 170.02 15.1026C168.163 17.7849 170.16 18.296 170.903 17.8166C178.476 13.2029 185.701 13.1893 188.478 15.1298C188.602 15.2208 188.704 15.3376 188.776 15.4717C188.848 15.6058 188.888 15.7539 188.894 15.9051C188.9 16.0563 188.871 16.2069 188.809 16.3458C188.748 16.4848 188.655 16.6086 188.538 16.7084C185.734 19.0333 187.303 20.1912 188.297 19.8384C191.955 18.7474 195.81 18.428 199.605 18.9014C203.401 19.3748 207.049 20.6302 210.307 22.584C210.423 22.6784 210.516 22.796 210.581 22.9288C210.647 23.0616 210.682 23.2064 210.684 23.3535C210.687 23.5007 210.657 23.6466 210.597 23.7815C210.536 23.9164 210.447 24.0371 210.335 24.1355C208.131 25.7765 206.286 27.829 204.907 30.1729C203.527 32.5168 202.642 35.1052 202.301 37.7865C202.093 39.5776 205.153 39.2022 206.439 38.8766C206.59 38.8394 206.748 38.8355 206.9 38.8654C207.053 38.8952 207.197 38.958 207.322 39.0491C207.446 39.1401 207.549 39.2572 207.621 39.3917C207.693 39.5262 207.733 39.6747 207.739 39.8264C207.86 44.1415 203.671 48.8819 197.44 52.9346C196.604 53.4774 196.725 54.7801 198.629 54.8344C198.81 54.8349 198.987 54.8819 199.144 54.9707C199.301 55.0595 199.43 55.1869 199.52 55.34C199.61 55.4932 199.657 55.6668 199.656 55.8432C199.655 56.0197 199.607 56.1928 199.515 56.3451C197.296 60.3617 194.268 64.1431 183.983 66.7394C183.769 66.7928 183.578 66.9101 183.437 67.0748C183.295 67.2395 183.21 67.4434 183.194 67.6577C183.177 67.872 183.23 68.0859 183.345 68.2692C183.46 68.4526 183.631 68.5962 183.835 68.6799C184.017 68.7288 184.182 68.8268 184.31 68.9626C184.437 69.0984 184.524 69.2665 184.558 69.4477C184.592 69.629 184.574 69.816 184.504 69.9874C184.434 70.1587 184.317 70.3076 184.164 70.4168C173.916 78.9928 147.946 75.6094 144.649 61.1759C144.617 61.0337 144.617 60.8866 144.65 60.7446C144.682 60.6025 144.745 60.4689 144.834 60.3527C155.859 46.0105 170.777 34.9534 187.907 28.428C188.102 28.3634 188.264 28.2297 188.363 28.0533C188.461 27.877 188.487 27.6711 188.436 27.4769C188.385 27.2826 188.26 27.1143 188.087 27.0055C187.914 26.8967 187.706 26.8555 187.503 26.8901C178.221 28.2046 169.301 31.3119 161.268 36.0298C153.236 40.7477 146.251 46.981 140.725 54.364C140.575 54.5614 140.356 54.6996 140.11 54.7536C139.864 54.8075 139.606 54.7736 139.383 54.658C122.736 46.2855 136.411 21.5618 151.168 17.1788ZM53.2801 56.3406C53.1887 56.1883 53.1401 56.0151 53.1393 55.8387C53.1384 55.6622 53.1853 55.4887 53.2753 55.3355C53.3652 55.1823 53.4949 55.055 53.6515 54.9662C53.808 54.8774 53.9858 54.8304 54.167 54.8299C56.0708 54.7846 56.1915 53.4774 55.3557 52.9346C49.1242 48.8819 44.9451 44.1415 45.0566 39.8309C45.0622 39.6793 45.1026 39.5307 45.1748 39.3962C45.247 39.2617 45.3491 39.1446 45.4738 39.0536C45.5985 38.9625 45.7424 38.8998 45.8952 38.8699C46.048 38.8401 46.2057 38.8439 46.3567 38.8811C47.6476 39.2067 50.703 39.5822 50.494 37.791C50.1532 35.1105 49.2672 32.523 47.8879 30.1799C46.5086 27.8368 44.6637 25.785 42.4609 24.1445C42.3477 24.0462 42.2576 23.9252 42.1968 23.7899C42.136 23.6545 42.1059 23.508 42.1086 23.3603C42.1112 23.2126 42.1465 23.0672 42.2122 22.934C42.2778 22.8008 42.3721 22.683 42.4888 22.5885C45.7469 20.6347 49.395 19.3793 53.19 18.9059C56.9851 18.4325 60.8401 18.752 64.4986 19.843C65.4923 20.2003 67.0618 19.0378 64.2571 16.7129C64.1397 16.6129 64.0468 16.4885 63.9852 16.3489C63.9236 16.2093 63.8948 16.058 63.9011 15.9062C63.9073 15.7544 63.9483 15.6058 64.0212 15.4715C64.0941 15.3371 64.1969 15.2204 64.3221 15.1298C67.0943 13.1939 74.3194 13.2029 81.8975 17.8166C82.6358 18.3005 84.6325 17.7894 82.7797 15.1072C82.6642 14.9643 82.59 14.7938 82.565 14.6135C82.54 14.4332 82.5651 14.2497 82.6376 14.082C82.7102 13.9144 82.8275 13.7687 82.9775 13.6602C83.1274 13.5518 83.3045 13.4844 83.4902 13.4652C86.365 13.2457 89.2484 13.7696 91.8486 14.984C94.4489 16.1984 96.6737 18.0603 98.2981 20.3812C98.7438 20.924 100.634 21.3039 100.304 18.2598C100.287 18.0943 100.311 17.9272 100.376 17.7731C100.44 17.619 100.542 17.4827 100.673 17.376C100.805 17.2693 100.96 17.1955 101.128 17.1612C101.295 17.1268 101.468 17.1328 101.632 17.1788C116.389 21.5663 130.059 46.2855 113.412 54.658C113.19 54.7736 112.932 54.8075 112.685 54.7536C112.439 54.6996 112.221 54.5614 112.07 54.364C106.544 46.9823 99.5605 40.7502 91.5286 36.0331C83.4966 31.316 74.5784 28.2091 65.2973 26.8946C65.0936 26.8573 64.883 26.8967 64.708 27.0049C64.5331 27.1131 64.4069 27.2821 64.355 27.4775C64.303 27.6729 64.3293 27.8803 64.4283 28.0576C64.5274 28.2349 64.692 28.3689 64.8886 28.4325C82.0181 34.9567 96.9361 46.0122 107.961 60.3527C108.147 60.5879 108.212 60.8909 108.147 61.1804C104.85 75.6094 78.8793 78.9928 68.6312 70.4168C68.4788 70.3076 68.3611 70.1587 68.2915 69.9874C68.2219 69.816 68.2032 69.629 68.2376 69.4477C68.272 69.2665 68.3581 69.0984 68.486 68.9626C68.6139 68.8268 68.7785 68.7288 68.9609 68.6799C69.1642 68.5966 69.3355 68.4534 69.4509 68.2703C69.5662 68.0873 69.6197 67.8736 69.6038 67.6593C69.5879 67.4451 69.5034 67.2411 69.3623 67.0761C69.2211 66.9111 69.0304 66.7933 68.817 66.7394C58.5271 64.1431 55.5043 60.3572 53.2801 56.3406Z" fill="#46AF4B"/>
<path d="M191.993 100.464C196.265 111.528 192.935 116.847 182.808 111.216C174.638 106.813 167.417 100.915 161.541 93.847C153.908 85.0177 158.867 81.0871 170.884 83.2084C175.487 84.3986 179.765 86.5617 183.413 89.5441C187.062 92.5264 189.991 96.2548 191.993 100.464ZM146.566 88.0166C161.054 99.7452 144.458 108.045 126.4 108.045C108.337 108.045 91.746 99.7452 106.229 88.0166C111.947 83.5414 119.062 81.1021 126.398 81.1021C133.733 81.1021 140.848 83.5414 146.566 88.0166ZM60.8069 100.464C62.8085 96.2553 65.737 92.5272 69.3844 89.5449C73.0319 86.5626 77.3087 84.3992 81.9112 83.2084C93.9284 81.0825 98.8876 85.0177 91.2584 93.847C85.3823 100.915 78.1614 106.813 69.9916 111.216C59.8596 116.847 56.5349 111.528 60.8069 100.464ZM39.8557 161.939C38.1944 157.564 37.5484 152.885 37.9643 148.238C38.3802 143.591 39.8476 139.091 42.261 135.062C47.6149 126.197 53.0013 126.545 55.1372 134.058C57.8536 144.416 56.8692 155.371 52.3512 165.119C48.3857 172.79 43.4312 170.198 39.8557 161.939ZM78.4426 219.384C71.8972 217.774 66.0358 214.203 61.6853 209.175C57.3348 204.146 54.7147 197.914 54.1946 191.358C56.2052 145.828 123.567 227.136 78.4426 219.384ZM79.8124 162.672C68.5149 156.321 65.5246 140.762 73.1352 127.925C80.7457 115.083 96.0737 109.832 107.366 116.183C118.664 122.533 121.654 138.093 114.044 150.93C106.433 163.771 91.1052 169.022 79.8124 162.672ZM145.248 236.757C139.757 240.608 133.163 242.68 126.398 242.68C119.632 242.68 113.038 240.608 107.548 236.757C96.3569 229.231 107.617 220.564 126.4 220.564C145.183 220.564 156.438 229.231 145.248 236.757Z" fill="#3B4FC4"/>
<path d="M126.396 209.157C140.878 209.157 152.618 199.355 152.618 187.265C152.618 175.174 140.878 165.372 126.396 165.372C111.915 165.372 100.175 175.174 100.175 187.265C100.175 199.355 111.915 209.157 126.396 209.157Z" fill="#3B4FC4"/>
<path d="M138.748 150.93C131.138 138.093 134.128 122.533 145.425 116.183C156.723 109.828 172.051 115.083 179.657 127.925C187.272 140.762 184.277 156.321 172.98 162.672C161.687 169.027 146.359 163.771 138.748 150.93ZM174.354 219.384C129.22 227.137 196.591 145.828 198.593 191.358C198.074 197.914 195.454 204.146 191.105 209.174C186.755 214.203 180.899 217.774 174.354 219.384ZM212.941 161.939C209.365 170.199 204.406 172.79 200.445 165.119C195.925 155.373 194.943 144.42 197.659 134.058C199.795 126.55 205.182 126.192 210.531 135.062C212.944 139.091 214.412 143.591 214.828 148.238C215.243 152.885 214.602 157.564 212.941 161.939Z" fill="#3B4FC4"/>
</svg>
